<svg id="visual" viewBox="0 0 960 300" width="960" height="300" xmlns="http://www.w3.org/2000/svg" xmlns:xlink="http://www.w3.org/1999/xlink" version="1.1"><rect x="0" y="0" width="960" height="300" fill="#3c31dd"></rect><path d="M0 184L22.8 186.5C45.7 189 91.3 194 137 185.8C182.7 177.7 228.3 156.3 274 157.3C319.7 158.3 365.3 181.7 411.2 194.7C457 207.7 503 210.3 548.8 200.5C594.7 190.7 640.3 168.3 686 165C731.7 161.7 777.3 177.3 823 180.5C868.7 183.7 914.3 174.3 937.2 169.7L960 165L960 0L937.2 0C914.3 0 868.7 0 823 0C777.3 0 731.7 0 686 0C640.3 0 594.7 0 548.8 0C503 0 457 0 411.2 0C365.3 0 319.7 0 274 0C228.3 0 182.7 0 137 0C91.3 0 45.7 0 22.8 0L0 0Z" fill="#a216b8"></path><path d="M0 163L22.8 162.7C45.7 162.3 91.3 161.7 137 159.3C182.7 157 228.3 153 274 144.7C319.7 136.3 365.3 123.7 411.2 120C457 116.3 503 121.7 548.8 126C594.7 130.3 640.3 133.7 686 139.2C731.7 144.7 777.3 152.3 823 158.8C868.7 165.3 914.3 170.7 937.2 173.3L960 176L960 0L937.2 0C914.3 0 868.7 0 823 0C777.3 0 731.7 0 686 0C640.3 0 594.7 0 548.8 0C503 0 457 0 411.2 0C365.3 0 319.7 0 274 0C228.3 0 182.7 0 137 0C91.3 0 45.7 0 22.8 0L0 0Z" fill="#c600a5"></path><path d="M0 109L22.8 114C45.7 119 91.3 129 137 133C182.7 137 228.3 135 274 129.7C319.7 124.3 365.3 115.7 411.2 112.8C457 110 503 113 548.8 111C594.7 109 640.3 102 686 104.7C731.7 107.3 777.3 119.7 823 123.2C868.7 126.7 914.3 121.3 937.2 118.7L960 116L960 0L937.2 0C914.3 0 868.7 0 823 0C777.3 0 731.7 0 686 0C640.3 0 594.7 0 548.8 0C503 0 457 0 411.2 0C365.3 0 319.7 0 274 0C228.3 0 182.7 0 137 0C91.3 0 45.7 0 22.8 0L0 0Z" fill="#e00091"></path><path d="M0 62L22.8 67.5C45.7 73 91.3 84 137 82.8C182.7 81.7 228.3 68.3 274 68.3C319.7 68.3 365.3 81.7 411.2 81C457 80.3 503 65.7 548.8 64C594.7 62.3 640.3 73.7 686 75.5C731.7 77.3 777.3 69.7 823 71.7C868.7 73.7 914.3 85.3 937.2 91.2L960 97L960 0L937.2 0C914.3 0 868.7 0 823 0C777.3 0 731.7 0 686 0C640.3 0 594.7 0 548.8 0C503 0 457 0 411.2 0C365.3 0 319.7 0 274 0C228.3 0 182.7 0 137 0C91.3 0 45.7 0 22.8 0L0 0Z" fill="#f2007c"></path><path d="M0 28L22.8 28.8C45.7 29.7 91.3 31.3 137 31.7C182.7 32 228.3 31 274 29.8C319.7 28.7 365.3 27.3 411.2 27.3C457 27.3 503 28.7 548.8 32.5C594.7 36.3 640.3 42.7 686 41.5C731.7 40.3 777.3 31.7 823 34.2C868.7 36.7 914.3 50.3 937.2 57.2L960 64L960 0L937.2 0C914.3 0 868.7 0 823 0C777.3 0 731.7 0 686 0C640.3 0 594.7 0 548.8 0C503 0 457 0 411.2 0C365.3 0 319.7 0 274 0C228.3 0 182.7 0 137 0C91.3 0 45.7 0 22.8 0L0 0Z" fill="#ff0066"></path></svg>