<svg id="visual" viewBox="0 0 960 540" width="960" height="540" xmlns="http://www.w3.org/2000/svg" xmlns:xlink="http://www.w3.org/1999/xlink" version="1.1"><rect x="0" y="0" width="960" height="540" fill="#001220"></rect><path d="M0 388L22.8 376.7C45.7 365.3 91.3 342.7 137 331.7C182.7 320.7 228.3 321.3 274 321.5C319.7 321.7 365.3 321.3 411.2 328.7C457 336 503 351 548.8 359.5C594.7 368 640.3 370 686 362C731.7 354 777.3 336 823 335.5C868.7 335 914.3 352 937.2 360.5L960 369L960 541L937.2 541C914.3 541 868.7 541 823 541C777.3 541 731.7 541 686 541C640.3 541 594.7 541 548.8 541C503 541 457 541 411.2 541C365.3 541 319.7 541 274 541C228.3 541 182.7 541 137 541C91.3 541 45.7 541 22.8 541L0 541Z" fill="#fa7268"></path><path d="M0 373L22.8 379.2C45.7 385.3 91.3 397.7 137 397.5C182.7 397.3 228.3 384.7 274 383.8C319.7 383 365.3 394 411.2 392.8C457 391.7 503 378.3 548.8 378C594.7 377.7 640.3 390.3 686 397.3C731.7 404.3 777.3 405.7 823 401C868.7 396.3 914.3 385.7 937.2 380.3L960 375L960 541L937.2 541C914.3 541 868.7 541 823 541C777.3 541 731.7 541 686 541C640.3 541 594.7 541 548.8 541C503 541 457 541 411.2 541C365.3 541 319.7 541 274 541C228.3 541 182.7 541 137 541C91.3 541 45.7 541 22.8 541L0 541Z" fill="#ef5f67"></path><path d="M0 411L22.8 409.5C45.7 408 91.3 405 137 406.8C182.7 408.7 228.3 415.3 274 420.2C319.7 425 365.3 428 411.2 432.7C457 437.3 503 443.7 548.8 437.5C594.7 431.3 640.3 412.7 686 409.7C731.7 406.7 777.3 419.3 823 419.3C868.7 419.3 914.3 406.7 937.2 400.3L960 394L960 541L937.2 541C914.3 541 868.7 541 823 541C777.3 541 731.7 541 686 541C640.3 541 594.7 541 548.8 541C503 541 457 541 411.2 541C365.3 541 319.7 541 274 541C228.3 541 182.7 541 137 541C91.3 541 45.7 541 22.8 541L0 541Z" fill="#e34c67"></path><path d="M0 441L22.8 444.8C45.7 448.7 91.3 456.3 137 456.7C182.7 457 228.3 450 274 450.7C319.7 451.3 365.3 459.7 411.2 466.8C457 474 503 480 548.8 482.3C594.7 484.7 640.3 483.3 686 474.5C731.7 465.7 777.3 449.3 823 446.5C868.7 443.7 914.3 454.3 937.2 459.7L960 465L960 541L937.2 541C914.3 541 868.7 541 823 541C777.3 541 731.7 541 686 541C640.3 541 594.7 541 548.8 541C503 541 457 541 411.2 541C365.3 541 319.7 541 274 541C228.3 541 182.7 541 137 541C91.3 541 45.7 541 22.8 541L0 541Z" fill="#d53867"></path><path d="M0 503L22.8 501.5C45.7 500 91.3 497 137 496C182.7 495 228.3 496 274 498.7C319.7 501.3 365.3 505.7 411.2 502.8C457 500 503 490 548.8 485.2C594.7 480.3 640.3 480.7 686 485C731.7 489.3 777.3 497.7 823 497.2C868.7 496.7 914.3 487.3 937.2 482.7L960 478L960 541L937.2 541C914.3 541 868.7 541 823 541C777.3 541 731.7 541 686 541C640.3 541 594.7 541 548.8 541C503 541 457 541 411.2 541C365.3 541 319.7 541 274 541C228.3 541 182.7 541 137 541C91.3 541 45.7 541 22.8 541L0 541Z" fill="#c62368"></path></svg>