<svg id="visual" viewBox="0 0 900 600" width="900" height="600" xmlns="http://www.w3.org/2000/svg" xmlns:xlink="http://www.w3.org/1999/xlink" version="1.1"><rect x="0" y="0" width="900" height="600" fill="#310517"></rect><path d="M0 117L21.5 124.7C43 132.3 86 147.7 128.8 140.2C171.7 132.7 214.3 102.3 257.2 86.8C300 71.3 343 70.7 385.8 72.8C428.7 75 471.3 80 514.2 93.3C557 106.7 600 128.3 642.8 129.8C685.7 131.3 728.3 112.7 771.2 104.2C814 95.7 857 97.3 878.5 98.2L900 99L900 601L878.5 601C857 601 814 601 771.2 601C728.3 601 685.7 601 642.8 601C600 601 557 601 514.2 601C471.3 601 428.7 601 385.8 601C343 601 300 601 257.2 601C214.3 601 171.7 601 128.8 601C86 601 43 601 21.5 601L0 601Z" fill="#451a16"></path><path d="M0 196L21.5 201.8C43 207.7 86 219.3 128.8 222.5C171.7 225.7 214.3 220.3 257.2 224.7C300 229 343 243 385.8 239C428.7 235 471.3 213 514.2 206.2C557 199.3 600 207.7 642.8 219.3C685.7 231 728.3 246 771.2 240.5C814 235 857 209 878.5 196L900 183L900 601L878.5 601C857 601 814 601 771.2 601C728.3 601 685.7 601 642.8 601C600 601 557 601 514.2 601C471.3 601 428.7 601 385.8 601C343 601 300 601 257.2 601C214.3 601 171.7 601 128.8 601C86 601 43 601 21.5 601L0 601Z" fill="#4c1c2c"></path><path d="M0 277L21.5 286.7C43 296.3 86 315.7 128.8 329.3C171.7 343 214.3 351 257.2 346.2C300 341.3 343 323.7 385.8 306.2C428.7 288.7 471.3 271.3 514.2 274.3C557 277.3 600 300.7 642.8 314.3C685.7 328 728.3 332 771.2 333.8C814 335.7 857 335.3 878.5 335.2L900 335L900 601L878.5 601C857 601 814 601 771.2 601C728.3 601 685.7 601 642.8 601C600 601 557 601 514.2 601C471.3 601 428.7 601 385.8 601C343 601 300 601 257.2 601C214.3 601 171.7 601 128.8 601C86 601 43 601 21.5 601L0 601Z" fill="#482543"></path><path d="M0 399L21.5 394.2C43 389.3 86 379.7 128.8 373.5C171.7 367.3 214.3 364.7 257.2 377C300 389.3 343 416.7 385.8 429.5C428.7 442.3 471.3 440.7 514.2 434.5C557 428.3 600 417.7 642.8 418.8C685.7 420 728.3 433 771.2 432.7C814 432.3 857 418.7 878.5 411.8L900 405L900 601L878.5 601C857 601 814 601 771.2 601C728.3 601 685.7 601 642.8 601C600 601 557 601 514.2 601C471.3 601 428.7 601 385.8 601C343 601 300 601 257.2 601C214.3 601 171.7 601 128.8 601C86 601 43 601 21.5 601L0 601Z" fill="#393257"></path><path d="M0 502L21.5 501.8C43 501.7 86 501.3 128.8 494.5C171.7 487.7 214.3 474.3 257.2 466.3C300 458.3 343 455.7 385.8 457.8C428.7 460 471.3 467 514.2 473.5C557 480 600 486 642.8 491.2C685.7 496.3 728.3 500.7 771.2 505.5C814 510.3 857 515.7 878.5 518.3L900 521L900 601L878.5 601C857 601 814 601 771.2 601C728.3 601 685.7 601 642.8 601C600 601 557 601 514.2 601C471.3 601 428.7 601 385.8 601C343 601 300 601 257.2 601C214.3 601 171.7 601 128.8 601C86 601 43 601 21.5 601L0 601Z" fill="#1a3e62"></path></svg>