<svg id="visual" viewBox="0 0 960 300" width="960" height="300" xmlns="http://www.w3.org/2000/svg" xmlns:xlink="http://www.w3.org/1999/xlink" version="1.1"><rect x="0" y="0" width="960" height="300" fill="#0f0f10"></rect><path d="M0 215L16 215.7C32 216.3 64 217.7 96 199.7C128 181.7 160 144.3 192 131.7C224 119 256 131 288 144.8C320 158.7 352 174.3 384 175.8C416 177.3 448 164.7 480 154.7C512 144.7 544 137.3 576 133.2C608 129 640 128 672 147C704 166 736 205 768 203.2C800 201.3 832 158.7 864 138.5C896 118.3 928 120.7 944 121.8L960 123L960 301L944 301C928 301 896 301 864 301C832 301 800 301 768 301C736 301 704 301 672 301C640 301 608 301 576 301C544 301 512 301 480 301C448 301 416 301 384 301C352 301 320 301 288 301C256 301 224 301 192 301C160 301 128 301 96 301C64 301 32 301 16 301L0 301Z" fill="#ff0066" stroke-linecap="round" stroke-linejoin="miter"></path></svg>